<svg width="256" height="256" viewBox="0 0 256 256" fill="none" xmlns="http://www.w3.org/2000/svg">
<path fill-rule="evenodd" clip-rule="evenodd" d="M92.3117 32C94.9911 32 97.5585 33.0753 99.4382 34.9848L125.062 61.0152C126.002 61.9699 127.113 62.7161 128.325 63.2237C129.537 63.7312 130.849 64 132.188 64H246C251.523 64 256 68.4772 256 74V214C256 219.523 251.523 224 246 224H10C4.47715 224 0 219.523 0 214V42C0 36.4771 4.47715 32 10 32H92.3117ZM256 58V59.0311C253.14 57.1165 249.7 56 246 56H132.188C131.652 56 131.139 55.7849 130.763 55.403L128 52.5961V48H246C251.523 48 256 52.4772 256 58Z" fill="#BFA783"/>
</svg>
