<svg width="256" height="256" viewBox="0 0 256 256" fill="none" xmlns="http://www.w3.org/2000/svg">
<path fill-rule="evenodd" clip-rule="evenodd" d="M176 26C176 25.3151 175.931 24.6462 175.8 24C174.873 19.4355 170.838 16 166 16H90C85.1621 16 81.1266 19.4355 80.2 24C80.0689 24.6462 80 25.3151 80 26V32H88H168H176V26ZM246.889 40H9.15269C7.80044 40 6.83793 41.3141 7.24586 42.6033L38.4177 141.122C38.6808 141.953 39.4524 142.519 40.3246 142.519H104V136.556C104 133.794 106.239 131.556 109 131.556H147C149.761 131.556 152 133.794 152 136.556V142.519H219.873C220.774 142.519 221.564 141.916 221.802 141.047L248.817 42.5289C249.166 41.256 248.209 40 246.889 40ZM152 150.519H219.873C224.377 150.519 228.326 147.507 229.517 143.163L256 46.5869V214C256 219.523 251.523 224 246 224H10C4.47715 224 0 219.523 0 214V46.2222L30.7904 143.535C32.1059 147.693 35.9638 150.519 40.3246 150.519H104V155C104 157.761 106.239 160 109 160H147C149.761 160 152 157.761 152 155V150.519ZM112 152V139.556H144V152H112Z" fill="#BFA783"/>
</svg>
