<svg width="256" height="256" viewBox="0 0 256 256" fill="none" xmlns="http://www.w3.org/2000/svg">
<path fill-rule="evenodd" clip-rule="evenodd" d="M25.0941 185.597L88.3731 122.322L133.628 167.574L70.3489 230.849L25.0941 185.597ZM161.912 139.291L116.657 94.0391L91.3221 68.7054C94.3208 62.4396 96 55.4219 96 48.012C96 21.5038 74.5097 0.0147095 48 0.0147095C43.0861 0.0147095 38.3446 0.753072 33.8805 2.1249C30.5834 3.13809 29.8622 7.24909 32.3012 9.68794L49.4975 26.8832C53.4027 30.7883 53.4027 37.1196 49.4975 41.0246L41.0122 49.5094C37.1069 53.4144 30.7753 53.4144 26.8701 49.5094L9.67378 32.3141C7.23478 29.8752 3.12355 30.5964 2.1103 33.8933C0.7384 38.3571 0 43.0983 0 48.012C0 74.5201 21.4903 96.0092 48 96.0092C55.4103 96.0092 62.4285 94.3301 68.6946 91.3315L94.03 116.665L139.285 161.917L164.678 187.309C161.679 193.575 160 200.593 160 208.003C160 234.511 181.49 256 208 256C212.914 256 217.655 255.262 222.12 253.89C225.417 252.877 226.138 248.766 223.699 246.327L206.503 229.131C202.597 225.226 202.597 218.895 206.503 214.99L214.988 206.505C218.893 202.6 225.225 202.6 229.13 206.505L246.326 223.701C248.765 226.139 252.876 225.418 253.89 222.121C255.262 217.658 256 212.916 256 208.003C256 181.495 234.51 160.006 208 160.006C200.59 160.006 193.572 161.685 187.305 164.683L161.912 139.291ZM231.815 69.393L167.569 133.635L122.314 88.3826L186.56 24.1408L231.815 69.393ZM221.915 2.92876C220.939 1.95251 219.811 1.22032 218.607 0.732191C214.996 -0.732191 210.702 8.83032e-09 207.773 2.92876L192.217 18.4842L237.471 63.7365L253.028 48.181C256.445 44.7641 256.872 39.4896 254.309 35.6083C253.943 35.0538 253.516 34.5278 253.028 34.0397L221.915 2.92876ZM0.548931 248.989L21.8551 193.672L62.3328 234.147L7.01203 255.452C2.9669 257.01 -1.00901 253.034 0.548931 248.989Z" fill="#BFA783"/>
</svg>
