<svg width="256" height="256" viewBox="0 0 256 256" fill="none" xmlns="http://www.w3.org/2000/svg">
<path fill-rule="evenodd" clip-rule="evenodd" d="M64 128.204V171.932C64 175.657 66.6134 178.871 70.2601 179.631C108.345 187.565 147.655 187.565 185.74 179.631C189.387 178.871 192 175.657 192 171.932V128.204L132.565 150.492C129.622 151.596 126.379 151.596 123.436 150.492L64 128.204ZM220 117.704V162.631L210.536 172.095C208.583 174.048 208.583 177.213 210.536 179.166L220 188.631V203.66C220 205.869 221.791 207.66 224 207.66C226.209 207.66 228 205.869 228 203.66V188.572L237.406 179.166C239.358 177.213 239.358 174.048 237.406 172.095L228 162.689V114.704L220 117.704ZM9.25291 95.2974C9.37964 93.4872 10.4569 91.7388 12.4846 90.9784L126.245 48.3184C127.377 47.8939 128.624 47.8939 129.756 48.3184L220.254 82.255L228 85.1599L243.516 90.9783C244.057 91.1811 244.53 91.4542 244.935 91.7799C247.774 94.06 247.301 98.9222 243.516 100.342L228 106.16L220 109.16L191.814 119.73L129.756 143.002C128.624 143.426 127.377 143.426 126.245 143.002L64.1861 119.73L12.4846 100.342C10.6216 99.643 9.56094 98.1103 9.30261 96.462C9.24228 96.0771 9.22571 95.6858 9.25291 95.2974Z" fill="#BFA783"/>
</svg>
