<svg width="256" height="256" viewBox="0 0 256 256" fill="none" xmlns="http://www.w3.org/2000/svg">
<path fill-rule="evenodd" clip-rule="evenodd" d="M255.939 132H191.97C191.66 152.193 189.011 171.208 184.548 188H241.095C250.022 171.208 255.319 152.193 255.939 132ZM236.464 196H182.232C170.91 232.043 150.854 256 128 256C105.146 256 85.0906 232.043 73.7685 196H19.5367C42.1809 232.043 82.2928 256 128 256C173.708 256 213.82 232.043 236.464 196ZM14.905 188H71.4526C66.9892 171.208 64.3408 152.193 64.0309 132H0.0615234C0.68137 152.193 5.97811 171.208 14.905 188ZM255.939 124C255.319 103.807 250.022 84.7916 241.095 68H184.548C189.011 84.7916 191.66 103.807 191.97 124H255.939ZM236.464 60C213.82 23.9574 173.708 0 128 0C82.2928 0 42.1809 23.9574 19.5367 60H73.7685C85.0906 23.9574 105.146 0 128 0C150.854 0 170.91 23.9574 182.232 60H236.464ZM14.905 68C5.97811 84.7916 0.68137 103.807 0.0615234 124H64.0309C64.3408 103.807 66.9892 84.7916 71.4526 68H14.905ZM166.1 214.932C168.965 209.202 171.559 202.86 173.827 196H82.1737C84.4417 202.86 87.0358 209.202 89.9008 214.932C101.057 237.245 114.99 248 128 248C141.011 248 154.943 237.245 166.1 214.932ZM72.0318 132C72.3551 152.427 75.1445 171.47 79.7432 188H176.257C180.856 171.47 183.645 152.427 183.969 132H72.0318ZM173.827 60C171.559 53.1403 168.965 46.7981 166.1 41.068C154.943 18.755 141.011 8 128 8C114.99 8 101.057 18.755 89.9008 41.068C87.0358 46.7981 84.4417 53.1403 82.1737 60H173.827ZM176.257 68C180.856 84.5301 183.645 103.573 183.969 124H72.0318C72.3551 103.573 75.1445 84.5301 79.7432 68H176.257Z" fill="#BFA783"/>
</svg>
