<svg width="256" height="256" viewBox="0 0 256 256" fill="none" xmlns="http://www.w3.org/2000/svg">
<path fill-rule="evenodd" clip-rule="evenodd" d="M254.917 100.61C256.936 97.267 256.132 91.8727 252.503 90.1642L129.892 32.4308C128.672 31.8564 127.328 31.8564 126.108 32.4308L3.49679 90.1642C-0.131521 91.8726 -0.936239 97.2665 1.08259 100.61C1.62118 101.325 2.31123 101.915 3.15274 102.308L126.103 159.791C127.326 160.363 128.674 160.363 129.897 159.791L252.847 102.308C253.689 101.915 254.379 101.325 254.917 100.61ZM45 133.386L45 205.072C45 206.872 45.9989 208.524 47.5934 209.359C97.9837 235.769 158.818 235.541 209.337 209.379C210.958 208.539 212 206.854 212 205.028V132.919L132.933 169.885C129.753 171.372 126.247 171.372 123.067 169.885L45 133.386ZM227 125.906L236 121.698V164L244.464 172.465C246.417 174.417 246.417 177.583 244.464 179.536L236 188V203.5C236 205.985 233.985 208 231.5 208C229.015 208 227 205.985 227 203.5V188L218.535 179.536C216.583 177.583 216.583 174.417 218.535 172.465L227 164V125.906Z" fill="#BFA783"/>
</svg>
