<svg width="256" height="256" viewBox="0 0 256 256" fill="none" xmlns="http://www.w3.org/2000/svg">
<mask id="path-1-inside-1_131_2495" fill="white">
<path fill-rule="evenodd" clip-rule="evenodd" d="M121.328 4.97743L3.47726 110.552C-3.35747 116.674 0.973589 128 10.1498 128H32.0001V246C32.0001 251.523 36.4772 256 42.0001 256L94 256C99.5228 256 104 251.523 104 246V202C104 196.477 108.477 192 114 192H142C147.523 192 152 196.477 152 202V246C152 251.523 156.477 256 162 256L214 256C219.523 256 224 251.523 224 246V128H245.85C255.026 128 259.358 116.674 252.523 110.552L134.673 4.97742C130.875 1.57523 125.125 1.57524 121.328 4.97743Z"/>
</mask>
<path fill-rule="evenodd" clip-rule="evenodd" d="M121.328 4.97743L3.47726 110.552C-3.35747 116.674 0.973589 128 10.1498 128H32.0001V246C32.0001 251.523 36.4772 256 42.0001 256L94 256C99.5228 256 104 251.523 104 246V202C104 196.477 108.477 192 114 192H142C147.523 192 152 196.477 152 202V246C152 251.523 156.477 256 162 256L214 256C219.523 256 224 251.523 224 246V128H245.85C255.026 128 259.358 116.674 252.523 110.552L134.673 4.97742C130.875 1.57523 125.125 1.57524 121.328 4.97743Z" fill="#BFA783"/>
<path d="M3.47726 110.552L-7.19871 98.6343L-7.19872 98.6343L3.47726 110.552ZM121.328 4.97743L110.652 -6.93994L110.652 -6.93993L121.328 4.97743ZM32.0001 128H48.0001V112H32.0001V128ZM42.0001 256L42.0001 240H42.0001V256ZM94 256L94 240H94L94 256ZM162 256L162 240H162L162 256ZM214 256V240H214L214 256ZM224 128V112H208V128H224ZM252.523 110.552L263.199 98.6343V98.6343L252.523 110.552ZM134.673 4.97742L145.348 -6.93994L145.348 -6.93995L134.673 4.97742ZM14.1532 122.469L132.004 16.8948L110.652 -6.93993L-7.19871 98.6343L14.1532 122.469ZM10.1498 112C15.6554 112 18.2541 118.795 14.1532 122.469L-7.19872 98.6343C-24.9691 114.554 -13.7082 144 10.1498 144V112ZM32.0001 112H10.1498V144H32.0001V112ZM16.0001 128V246H48.0001V128H16.0001ZM16.0001 246C16.0001 260.359 27.6407 272 42.0001 272V240C45.3138 240 48.0001 242.686 48.0001 246H16.0001ZM42.0001 272L94 272L94 240L42.0001 240L42.0001 272ZM93.9999 272C108.359 272 120 260.359 120 246H88C88 242.686 90.6863 240 94 240L93.9999 272ZM120 246V202H88V246H120ZM120 202C120 205.313 117.314 208 114 208V176C99.6406 176 88 187.64 88 202H120ZM114 208H142V176H114V208ZM142 208C138.686 208 136 205.314 136 202H168C168 187.64 156.359 176 142 176V208ZM136 202V246H168V202H136ZM136 246C136 260.359 147.641 272 162 272L162 240C165.314 240 168 242.686 168 246H136ZM162 272L214 272L214 240L162 240L162 272ZM214 272C228.359 272 240 260.359 240 246H208C208 242.686 210.686 240 214 240V272ZM240 246V128H208V246H240ZM245.85 112H224V144H245.85V112ZM241.847 122.469C237.746 118.795 240.345 112 245.85 112V144C269.708 144 280.969 114.554 263.199 98.6343L241.847 122.469ZM123.997 16.8948L241.847 122.469L263.199 98.6343L145.348 -6.93994L123.997 16.8948ZM132.004 16.8948C129.725 18.9361 126.275 18.9361 123.997 16.8948L145.348 -6.93995C135.474 -15.7857 120.526 -15.7856 110.652 -6.93994L132.004 16.8948Z" fill="#BFA783" mask="url(#path-1-inside-1_131_2495)"/>
</svg>
