<svg width="256" height="256" viewBox="0 0 256 256" fill="none" xmlns="http://www.w3.org/2000/svg">
<path fill-rule="evenodd" clip-rule="evenodd" d="M116 24C122.627 24 128 18.6274 128 12C128 5.37258 122.627 0 116 0H24C10.7452 0 0 10.7452 0 24V232C0 245.255 10.7452 256 24 256H232C245.255 256 256 245.255 256 232V140C256 133.373 250.627 128 244 128C237.373 128 232 133.373 232 140V200C232 217.673 217.673 232 200 232H56C38.3269 232 24 217.673 24 200V56C24 38.3269 38.3269 24 56 24H116ZM232 42.0683L142.042 132.027C138.136 135.932 131.805 135.932 127.9 132.027L125.071 129.198C121.166 125.293 121.166 118.961 125.071 115.056L216.127 24H170C164.477 24 160 19.5228 160 14V10C160 4.47715 164.477 0 170 0H242H246H246C251.523 0 256 4.47715 256 10V86C256 91.5228 251.523 96 246 96H242C236.477 96 232 91.5229 232 86V42.0683Z" fill="#BFA783"/>
</svg>
